#!OML:ASF \\sashay\E\basketball\basketball\Project 1\Capture day 1\Session 1\Subject.ASF
:FULLY-SPECIFIED
:DEGREES
51
root -8.98276 14.047 3.75382 -158.659 49.4871 -164.483
lowerback 20.7269 5.37537 -6.05652
upperback 10.1646 7.20745 2.18221
thorax -1.39448 3.84478 4.14423
lowerneck -2.65184 -10.479 -10.3669
upperneck -24.3206 -8.39936 27.2517
head -4.61133 -4.2784 10.9599
rclavicle -2.06736e-014 -1.43125e-014
rhumerus 16.3381 -16.186 -101.196
rradius 29.4296
rwrist 12.9234
rhand -20.1304 24.0148
rfingers 7.12502
rthumb 6.21394 -5.8741
lclavicle -2.06736e-014 -1.43125e-014
lhumerus -17.0904 -1.18958 101.315
lradius 41.7667
lwrist 12.6753
lhand -31.9697 28.7916
lfingers 7.12502
lthumb -5.21947 58.7073
rfemur -6.71064 -17.0907 10.5868
rtibia 92.6147
rfoot -2.9642 -5.61951
rtoes -30.1376
lfemur -44.371 6.16655 -35.6056
ltibia 63.9907
lfoot -23.9117 5.29646
ltoes 18.9482
52
root -8.53223 14.0643 3.47038 -159.251 48.6544 -165.69
lowerback 20.5149 4.78041 -6.24287
upperback 9.99108 6.37503 1.98578
thorax -1.37315 3.42227 4.24853
lowerneck -2.74025 -10.114 -11.0841
upperneck -23.4802 -8.06661 27.5206
head -4.33953 -4.07073 11.1415
rclavicle -6.83819e-014 3.81667e-014
rhumerus 14.822 -14.7555 -100.537
rradius 30.5583
rwrist 9.95094
rhand -20.0565 23.9956
rfingers 7.12502
rthumb 6.28529 -5.89111
lclavicle -6.83819e-014 3.81667e-014
lhumerus -16.1276 -1.74001 101.698
lradius 45.0284
lwrist 13.9711
lhand -30.9414 28.2262
lfingers 7.12502
lthumb -4.22657 58.164
rfemur -11.5306 -16.9286 10.745
rtibia 95.7712
rfoot -4.11231 -6.01784
rtoes -30.1264
lfemur -42.293 6.70277 -35.7995
ltibia 64.2878
lfoot -25.5181 4.38506
ltoes 17.1856
53
root -8.1001 14.0856 3.18055 -159.607 48.0725 -167.158
lowerback 20.037 4.17938 -6.44967
upperback 9.61239 5.49395 1.59158
thorax -1.41788 2.96846 4.16614
lowerneck -2.80539 -9.67652 -11.3837
upperneck -22.6013 -7.69977 27.3078
head -4.14191 -3.8594 11.0761
rclavicle 5.24792e-014 -4.8901e-014
rhumerus 14.097 -17.7842 -101.187
rradius 32.0996
rwrist 7.66042
rhand -20.1358 23.7556
rfingers 7.12502
rthumb 6.2087 -6.13342
lclavicle 5.24792e-014 -4.8901e-014
lhumerus -15.5059 -2.57213 101.615
lradius 48.6445
lwrist 14.8392
lhand -30.8401 28.8064
lfingers 7.12502
lthumb -4.12872 58.7462
rfemur -17.1681 -16.5205 10.6891
rtibia 98.4513
rfoot -5.08985 -6.77169
rtoes -32.1434
lfemur -40.6878 7.25748 -36.4116
ltibia 64.4384
lfoot -26.7815 3.20843
ltoes 17.4993
54
root -7.65244 14.1186 2.89478 -160.049 47.2071 -168.358
lowerback 19.753 3.49323 -6.60176
upperback 9.33561 4.53295 1.38007
thorax -1.45181 2.48089 4.25061
lowerneck -3.03842 -9.25392 -11.3793
upperneck -21.7116 -7.40955 26.6047
head -3.955 -3.67718 10.7644
rclavicle 6.24184e-014 -1.43125e-014
rhumerus 12.2944 -17.2791 -100.69
rradius 34.5962
rwrist 5.12383
rhand -20.1153 23.6238
rfingers 7.12502
rthumb 6.22851 -6.26465
lclavicle 6.24184e-014 -1.43125e-014
lhumerus -15.0806 -3.48216 101.202
lradius 52.4359
lwrist 15.1
lhand -29.7502 28.5562
lfingers 7.12502
lthumb -3.07625 58.5138
rfemur -22.2238 -16.0288 10.953
rtibia 100.286
rfoot -5.76943 -7.81138
rtoes -31.5602
lfemur -38.6135 8.06794 -36.6644
ltibia 64.34
lfoot -27.7073 1.70981
ltoes 18.1698
55
root -7.19659 14.1587 2.60295 -160.615 46.3137 -169.423
lowerback 19.3711 2.7568 -6.91895
upperback 9.32924 3.53919 1.39497
thorax -1.15266 1.96573 4.685
lowerneck -3.68341 -8.84553 -11.5724
upperneck -20.6418 -7.15981 25.8079
head -3.62818 -3.47048 10.4281
rclavicle -8.26944e-014 -1.35174e-014
rhumerus 10.4624 -15.1636 -99.7131
rradius 35.9532
rwrist 2.27772
rhand -19.964 23.5698
rfingers 7.12502
rthumb 6.37454 -6.31424
lclavicle -8.26944e-014 -1.35174e-014
lhumerus -14.4248 -4.01925 100.698
lradius 56.0879
lwrist 14.517
lhand -29.0259 27.9153
lfingers 7.12502
lthumb -2.37669 57.8818
rfemur -26.7004 -15.3611 11.1631
rtibia 101.378
rfoot -6.30574 -8.6993
rtoes -29.1762
lfemur -36.1664 9.21072 -36.7369
ltibia 63.9775
lfoot -28.1751 0.652959
ltoes 16.5027
56
root -6.74183 14.213 2.3019 -161.513 45.34 -170.637
lowerback 19.7062 2.16364 -7.12589
upperback 8.99303 2.6595 1.36365
thorax -1.57473 1.53366 4.93843
lowerneck -3.79361 -8.52274 -11.7431
upperneck -19.6097 -7.06212 25.1083
head -3.3718 -3.39397 10.1517
rclavicle -9.93923e-014 4.77083e-014
rhumerus 8.13325 -14.1438 -98.5339
rradius 37.0499
rwrist -0.0386536
rhand -19.9155 23.4777
rfingers 7.12502
rthumb 6.42137 -6.40501
lclavicle -9.93923e-014 4.77083e-014
lhumerus -14.434 -4.60842 100.172
lradius 59.5279
lwrist 13.0393
lhand -28.5429 27.1593
lfingers 7.12502
lthumb -1.9102 57.1305
rfemur -30.7524 -14.7141 11.0642
rtibia 101.756
rfoot -6.72948 -9.60102
rtoes -28.4675
lfemur -33.2667 10.2146 -36.6581
ltibia 63.3298
lfoot -28.1246 -0.128289
ltoes 12.9327
57
root -6.29017 14.2796 1.99199 -161.961 44.2861 -171.634
lowerback 19.2611 1.56209 -7.20649
upperback 8.99201 1.89058 1.42419
thorax -1.24437 1.13381 5.22523
lowerneck -3.9221 -8.3538 -11.9448
upperneck -19.2266 -6.98977 24.606
head -3.27914 -3.32783 9.98946
rclavicle 2.8625e-014 -1.82882e-014
rhumerus 6.50003 -14.5604 -97.3731
rradius 38.9763
rwrist -2.81883
rhand -19.9681 23.3116
rfingers 7.12502
rthumb 6.37057 -6.57263
lclavicle 2.8625e-014 -1.82882e-014
lhumerus -13.763 -5.36903 99.5906
lradius 62.5069
lwrist 10.8968
lhand -28.0188 26.3412
lfingers 7.12502
lthumb -1.40407 56.3164
rfemur -35.2348 -13.9856 11.2175
rtibia 101.543
rfoot -6.81717 -10.7324
rtoes -29.1291
lfemur -30.6543 10.7716 -36.2299
ltibia 62.5711
lfoot -27.4658 -1.08893
ltoes 9.6658
58
root -5.803 14.3697 1.68069 -163.013 43.1285 -172.72
lowerback 19.133 1.00741 -7.87501
upperback 9.19409 1.1141 1.59672
thorax -0.838694 0.716899 5.95897
lowerneck -4.14131 -8.15629 -12.1585
upperneck -18.7558 -6.85911 24.2266
head -3.14676 -3.22988 9.86881
rclavicle -4.92986e-014 1.59028e-014
rhumerus 4.70641 -14.2619 -96.128
rradius 40.9735
rwrist -5.54784
rhand -19.9299 23.1961
rfingers 7.12502
rthumb 6.40749 -6.68697
lclavicle -4.92986e-014 1.59028e-014
lhumerus -13.0956 -5.94383 98.7035
lradius 65.2087
lwrist 8.5013
lhand -27.73 25.463
lfingers 7.12502
lthumb -1.12514 55.4398
rfemur -38.2347 -13.0437 11.2727
rtibia 100.397
rfoot -7.17366 -11.9123
rtoes -29.1
lfemur -27.199 11.4755 -35.2747
ltibia 61.5304
lfoot -26.3182 -2.86223
ltoes 7.82552
59
root -5.33303 14.4384 1.35719 -163.259 42.1884 -173.569
lowerback 18.4783 0.446826 -8.06617
upperback 9.04426 0.359931 1.54407
thorax -0.541611 0.313129 6.15859
lowerneck -4.1546 -7.91596 -12.1362
upperneck -18.0176 -6.71121 24.0337
head -2.97485 -3.16019 9.76762
rclavicle -1.11319e-014 -2.8625e-014
rhumerus 2.55969 -13.2095 -94.9913
rradius 42.2035
rwrist -7.61713
rhand -19.803 23.1409
rfingers 7.12502
rthumb 6.53002 -6.73845
lclavicle -1.11319e-014 -2.8625e-014
lhumerus -12.946 -6.40467 97.4771
lradius 67.6945
lwrist 5.88872
lhand -28.0857 25.0802
lfingers 7.12502
lthumb -1.46867 55.0549
rfemur -41.9055 -11.9831 11.2204
rtibia 98.8812
rfoot -7.75912 -12.3654
rtoes -26.8049
lfemur -24.597 11.7028 -34.3607
ltibia 60.3563
lfoot -24.6327 -4.25822
ltoes 5.0981
60
root -4.86252 14.531 1.01202 -163.833 41.0571 -174.159
lowerback 18.4092 -0.0610883 -7.73341
upperback 8.96878 -0.254686 1.43192
thorax -0.499962 0.0187555 5.95925
lowerneck -3.88866 -7.84962 -11.9861
upperneck -17.4972 -6.77224 24.006
head -2.86979 -3.22511 9.7127
rclavicle 2.46493e-014 -2.70347e-014
rhumerus 0.397603 -13.0616 -93.8848
rradius 43.0212
rwrist -8.75318
rhand -19.8013 23.1512
rfingers 7.12502
rthumb 6.53161 -6.72803
lclavicle 2.46493e-014 -2.70347e-014
lhumerus -12.9206 -7.08919 96.1914
lradius 69.7526
lwrist 3.40323
lhand -28.9518 25.2231
lfingers 7.12502
lthumb -2.30512 55.1904
rfemur -44.4622 -10.9267 11.0762
rtibia 96.5163
rfoot -8.05805 -12.7893
rtoes -24.2376
lfemur -21.1863 11.5555 -32.9423
ltibia 58.7666
lfoot -22.2717 -5.61244
ltoes 1.55875
61
root -4.38833 14.6482 0.641749 -164.477 40.0241 -174.934
lowerback 18.1323 -0.427529 -7.65247
upperback 8.92801 -0.706699 1.41215
thorax -0.333488 -0.211551 5.96884
lowerneck -3.52143 -7.896 -11.9465
upperneck -17.2209 -6.96363 23.9433
head -2.82565 -3.35535 9.67573
rclavicle -5.00937e-014 7.15625e-015
rhumerus -1.73088 -13.7068 -92.5712
rradius 43.5261
rwrist -8.71993
rhand -19.7916 23.1845
rfingers 7.12502
rthumb 6.54104 -6.69446
lclavicle -5.00937e-014 7.15625e-015
lhumerus -12.5981 -7.59198 95.1347
lradius 71.0563
lwrist 1.46554
lhand -30.0428 25.1565
lfingers 7.12502
lthumb -3.35876 55.1097
rfemur -46.5899 -9.91787 10.5671
rtibia 93.4231
rfoot -8.39898 -12.8414
rtoes -27.2766
lfemur -17.6967 11.3269 -31.5919
ltibia 56.8053
lfoot -18.9562 -7.45812
ltoes 0.325598
